<svg width="35" height="35" viewBox="0 0 35 35" fill="none" xmlns="http://www.w3.org/2000/svg">
<rect x="0.378021" y="0.895844" width="33.9287" height="33.9287" rx="10.6027" fill="#2D9CDB" fill-opacity="0.15"/>
<path d="M11.576 27.7188H24.076C24.9048 27.7188 25.6996 27.3896 26.2857 26.8035C26.8717 26.2175 27.201 25.4226 27.201 24.5938V12.0938C27.201 11.265 26.8717 10.4702 26.2857 9.88411C25.6996 9.29806 24.9048 8.96882 24.076 8.96882H23.0343C23.0343 8.69255 22.9245 8.4276 22.7292 8.23225C22.5338 8.0369 22.2689 7.92715 21.9926 7.92715C21.7164 7.92715 21.4514 8.0369 21.2561 8.23225C21.0607 8.4276 20.951 8.69255 20.951 8.96882H14.701C14.701 8.69255 14.5912 8.4276 14.3959 8.23225C14.2005 8.0369 13.9356 7.92715 13.6593 7.92715C13.383 7.92715 13.1181 8.0369 12.9227 8.23225C12.7274 8.4276 12.6176 8.69255 12.6176 8.96882H11.576C10.7472 8.96882 9.9523 9.29806 9.36625 9.88411C8.7802 10.4702 8.45096 11.265 8.45096 12.0938V24.5938C8.45096 25.4226 8.7802 26.2175 9.36625 26.8035C9.9523 27.3896 10.7472 27.7188 11.576 27.7188ZM10.5343 12.0938C10.5343 11.8176 10.644 11.5526 10.8394 11.3573C11.0347 11.1619 11.2997 11.0522 11.576 11.0522H12.6176V12.0938C12.6176 12.3701 12.7274 12.635 12.9227 12.8304C13.1181 13.0257 13.383 13.1355 13.6593 13.1355C13.9356 13.1355 14.2005 13.0257 14.3959 12.8304C14.5912 12.635 14.701 12.3701 14.701 12.0938V11.0522H20.951V12.0938C20.951 12.3701 21.0607 12.635 21.2561 12.8304C21.4514 13.0257 21.7164 13.1355 21.9926 13.1355C22.2689 13.1355 22.5338 13.0257 22.7292 12.8304C22.9245 12.635 23.0343 12.3701 23.0343 12.0938V11.0522H24.076C24.3522 11.0522 24.6172 11.1619 24.8125 11.3573C25.0079 11.5526 25.1176 11.8176 25.1176 12.0938V15.2188H10.5343V12.0938ZM10.5343 17.3022H25.1176V24.5938C25.1176 24.8701 25.0079 25.135 24.8125 25.3304C24.6172 25.5257 24.3522 25.6355 24.076 25.6355H11.576C11.2997 25.6355 11.0347 25.5257 10.8394 25.3304C10.644 25.135 10.5343 24.8701 10.5343 24.5938V17.3022Z" fill="#2D9CDB"/>
</svg>
