<svg width="25" height="25" viewBox="0 0 25 25" fill="none" xmlns="http://www.w3.org/2000/svg">
<path d="M12.5924 21.8957L12.592 21.8957L12.5279 21.8977L12.5241 21.8978L12.5241 21.8978C11.3758 21.8949 10.508 21.423 9.57419 20.8829C9.57404 20.8828 9.5739 20.8827 9.57375 20.8827L7.85845 19.9075L6.75198 19.3792C5.89987 19.0055 4.95894 18.5543 4.68993 17.49C4.63005 17.2531 4.63543 16.9893 4.64024 16.7538C4.64152 16.6911 4.64276 16.6304 4.64271 16.5727V16.5726L4.64356 11.6149C4.36595 11.541 4.0228 11.3818 3.73938 11.1621C3.45498 10.9416 3.21052 10.6439 3.1806 10.2919C3.16231 10.0767 3.25204 9.83413 3.38429 9.59653C3.51855 9.35532 3.70656 9.10198 3.90794 8.86005C4.22974 8.47346 4.59437 8.10606 4.84321 7.85533L12.5924 21.8957ZM12.5924 21.8957C13.6259 21.8598 14.4718 21.453 15.3212 20.9482C15.3214 20.9481 15.3216 20.948 15.3218 20.9478L16.6718 20.1687L17.9319 19.5387C18.0501 19.4855 18.1692 19.4342 18.2881 19.3831C19.1701 19.0038 20.035 18.6318 20.3532 17.5027C20.3909 17.3687 20.4015 17.2254 20.4035 17.0888C20.4047 17.0134 20.403 16.9306 20.4013 16.8524C20.4002 16.7965 20.3991 16.7431 20.3991 16.6965L20.4 11.5684C20.9167 11.4183 21.4466 11.1575 21.7436 10.6472C21.8731 10.4248 21.8687 10.1732 21.796 9.92747C21.7235 9.68273 21.5802 9.43223 21.4133 9.1968C21.1305 8.79787 20.765 8.42213 20.5196 8.16984C20.4757 8.12463 20.4355 8.08337 20.4004 8.04666L20.3183 8.1252L20.4004 8.04666C19.851 7.47209 19.4415 7.0676 18.7289 6.67832L18.6744 6.77805L18.7289 6.67832C17.9996 6.27999 17.2378 5.9362 16.4714 5.62394L16.4715 5.62382L16.4662 5.62198L13.5788 4.60663L13.5788 4.6065L13.5736 4.60493C13.4869 4.57908 13.4008 4.5486 13.3117 4.51703L13.3091 4.51612C13.22 4.48457 13.1278 4.45196 13.0342 4.42437C12.8468 4.36915 12.646 4.33154 12.4289 4.35975M12.5924 21.8957L12.4422 4.47262M5.59967 7.11185C5.42961 7.23663 5.27862 7.39906 5.13899 7.54926C5.09345 7.59824 5.04913 7.64592 5.00575 7.69058L7.77276 6.09434L9.61889 5.3227L11.5325 4.71809C11.623 4.69182 11.7106 4.66282 11.7974 4.63409C12.0072 4.56464 12.2124 4.49674 12.4422 4.47262M5.59967 7.11185L5.6669 7.20348L5.59967 7.11186C5.59967 7.11186 5.59967 7.11186 5.59967 7.11185ZM5.59967 7.11185C6.20974 6.66419 7.0558 6.28365 7.72725 5.99021L7.72893 5.98948L7.72893 5.98949L9.57507 5.21785L9.58451 5.2139L9.58465 5.21434L11.4983 4.60973L11.5008 4.60893L11.5008 4.60896C11.591 4.58278 11.6735 4.55541 11.7576 4.52756C11.819 4.50718 11.8813 4.48655 11.9479 4.46593C12.0988 4.4192 12.2564 4.37799 12.4289 4.35975M12.4289 4.35975C12.4284 4.35982 12.4279 4.35988 12.4274 4.35995L12.4422 4.47262M12.4289 4.35975C12.4294 4.3597 12.4299 4.35965 12.4303 4.3596L12.4422 4.47262M5.44038 11.8493L5.4403 15.8856C5.4403 15.8856 5.4403 15.8857 5.4403 15.8857C5.44034 16.0138 5.43877 16.1415 5.43721 16.2686C5.43335 16.5816 5.42954 16.8914 5.44997 17.1976C5.46333 17.3979 5.57461 17.6164 5.73848 17.8151C5.9012 18.0124 6.10536 18.1775 6.28332 18.2721C6.54097 18.4085 6.80546 18.5251 7.07429 18.6436C7.18927 18.6943 7.30504 18.7453 7.4214 18.7984L7.42548 18.8003L7.42544 18.8004L8.4038 19.2941L8.40987 19.2972L8.40976 19.2974L10.4011 20.4564C11.4483 21.034 12.2046 21.1895 12.9364 21.0704C13.6776 20.9498 14.4079 20.5465 15.4051 19.9656L15.4076 19.9642L15.4076 19.9642L17.0756 19.0485L17.0818 19.0451L17.0819 19.0453L17.9814 18.6219L17.9853 18.6201L17.9853 18.6201C18.0332 18.5998 18.0803 18.58 18.1265 18.5605C18.4627 18.4191 18.7546 18.2963 18.9965 18.1189C19.2644 17.9226 19.4702 17.6587 19.5836 17.2213L19.6936 17.2498L19.5836 17.2213C19.6035 17.1448 19.6093 17.0517 19.6091 16.9486C19.609 16.8976 19.6075 16.8461 19.606 16.7942L19.6059 16.7922L5.44038 11.8493ZM5.44038 11.8493L8.00964 12.7335L8.01066 12.7338C8.14693 12.7793 8.28307 12.8268 8.41797 12.8739C8.64025 12.9514 8.85917 13.0278 9.06977 13.092C9.41081 13.1959 9.74541 13.2729 10.0701 13.2789C10.397 13.2849 10.714 13.2188 11.0175 13.0373C11.3199 12.8565 11.6014 12.5657 11.8656 12.1338L11.8659 12.1332L12.0138 11.8882L12.0133 20.0187V20.0187C12.0134 20.2862 12.1358 20.4736 12.3159 20.5346C12.4932 20.5946 12.6891 20.5158 12.7823 20.3313L12.7823 20.3313L12.7834 20.3289L12.7898 20.3155C12.7899 20.3153 12.79 20.3151 12.7901 20.3149C12.813 20.2676 12.8196 20.2275 12.8212 20.1833L12.8212 20.1833L12.8212 20.1793L12.8143 11.9075C13.1361 12.4717 13.5481 13.0413 14.2423 13.243L14.274 13.1339L14.2423 13.243C14.584 13.3423 14.9057 13.3144 15.2125 13.2405C15.41 13.193 15.6104 13.1235 15.8055 13.0559C15.9064 13.0209 16.0059 12.9864 16.1027 12.9557L16.1028 12.9557L19.5227 11.8691C19.5227 11.8691 19.5227 11.8691 19.5228 11.8691C19.5396 11.8637 19.5573 11.8603 19.5814 11.8556C19.5829 11.8553 19.5843 11.855 19.5858 11.8547L19.603 16.6417C19.603 16.6419 19.603 16.642 19.603 16.6422L5.44038 11.8493ZM17.9888 7.20255C18.2637 7.3445 18.5325 7.48328 18.7884 7.64331L15.8434 8.82774L15.5966 8.90459C15.5626 8.89327 15.5264 8.87778 15.4871 8.85949C15.47 8.85153 15.4512 8.84246 15.4317 8.83306C15.3987 8.81719 15.3638 8.80041 15.3322 8.78649L9.92307 6.14081L9.92308 6.1408L9.92174 6.14017C9.87641 6.11873 9.83268 6.09928 9.79036 6.08046C9.75808 6.06611 9.72661 6.05211 9.6959 6.03789C9.76787 6.00964 9.85693 5.9768 9.95916 5.94058C10.2242 5.84669 10.5725 5.73201 10.9285 5.61938C11.2844 5.50679 11.647 5.39655 11.9404 5.31155C12.2293 5.22783 12.4418 5.17142 12.5189 5.15853C12.6324 5.15698 12.7433 5.19258 12.8731 5.23423C12.8857 5.23827 12.8984 5.24236 12.9114 5.24649L12.9115 5.24653L13.3927 5.39899L13.3927 5.399L13.394 5.39939C14.9515 5.87271 16.4992 6.43311 17.9425 7.17866C17.9579 7.18663 17.9733 7.1946 17.9888 7.20255ZM12.3033 10.0297L12.3035 10.0294L12.2951 10.026L6.27153 7.63869C6.68821 7.36057 7.16365 7.1377 7.6232 6.9268L8.70796 6.46148L14.1716 9.15571L14.1716 9.15572L14.1734 9.15654C14.2185 9.17787 14.2651 9.20071 14.3129 9.22409C14.3752 9.25466 14.4395 9.28614 14.5049 9.31639L12.4221 10.088L12.3033 10.0297ZM4.37266 9.58038L4.28622 9.51201L4.37266 9.58038C4.75349 9.09896 5.16745 8.65524 5.60983 8.22819C5.70966 8.2774 5.81397 8.32092 5.91349 8.36244C5.95687 8.38053 5.99935 8.39825 6.04014 8.4159L6.04013 8.41593L6.04251 8.41689L10.7713 10.3365L10.7713 10.3367L10.7765 10.3385L11.8091 10.7006L11.0595 11.88C10.846 12.1937 10.6258 12.3996 10.2692 12.4687L10.1392 12.4832C9.88872 12.4931 9.67948 12.4286 9.4208 12.3487L9.40995 12.3454L5.93384 11.1687C5.93384 11.1687 5.93384 11.1687 5.93384 11.1687C5.78184 11.1172 5.61898 11.072 5.45608 11.0268L5.45163 11.0255C5.28911 10.9805 5.12611 10.9352 4.96718 10.8827C4.64533 10.7764 4.35271 10.6439 4.13466 10.4373L4.0565 10.5198L4.13466 10.4373C4.05662 10.3633 4.02414 10.2973 4.0138 10.2398C4.00331 10.1814 4.01325 10.1185 4.04319 10.0474C4.09491 9.92447 4.19263 9.80364 4.29928 9.67179C4.32343 9.64194 4.34803 9.61152 4.37266 9.58038ZM13.0213 10.7072L19.4189 8.24353L20.0921 8.88802C20.4274 9.24916 20.6768 9.52751 20.8358 9.7532C20.9983 9.98405 21.0456 10.1321 21.0255 10.2397C21.0063 10.3425 20.9163 10.4515 20.6769 10.5791C20.4412 10.7047 20.0906 10.8329 19.6053 10.9891C19.6052 10.9892 19.6051 10.9892 19.605 10.9892L15.9735 12.1462C15.9735 12.1462 15.9735 12.1462 15.9735 12.1462C15.8559 12.1835 15.7455 12.2224 15.6392 12.2599C15.2817 12.3859 14.9706 12.4956 14.5873 12.471C14.1801 12.4052 13.9003 12.1203 13.6518 11.7462C13.5492 11.5916 13.4551 11.4269 13.36 11.2605C13.3396 11.2248 13.3192 11.1891 13.2986 11.1534C13.2103 10.9999 13.1196 10.8468 13.0213 10.7072Z" fill="#202224" stroke="#202224" stroke-width="0.227273"/>
<path d="M14.6168 18.1954C13.8635 18.2433 13.6325 17.2771 14.2727 16.8815C14.5086 16.7358 14.7788 16.6269 15.0268 16.5021L16.9424 15.5544C17.0893 15.4829 17.2239 15.4154 17.3853 15.3838C18.2067 15.3055 18.3486 16.3658 17.7061 16.763C17.6125 16.8209 17.5079 16.8636 17.4081 16.91L15.6022 17.777C15.2899 17.9271 14.9576 18.1236 14.6168 18.1954ZM17.4849 15.9851C16.7705 16.2714 16.0706 16.6284 15.3851 16.9776C15.1236 17.1107 14.8331 17.2297 14.5896 17.3926C14.477 17.4679 14.4309 17.6166 14.5566 17.6086C14.6978 17.5699 14.8376 17.4891 14.9697 17.4258L17.347 16.2681C17.4468 16.2125 17.6473 16.1091 17.5026 15.9858L17.4849 15.9851Z" fill="#202224"/>
</svg>
