<svg width="24" height="24" viewBox="0 0 24 24" fill="none" xmlns="http://www.w3.org/2000/svg">
<g clip-path="url(#clip0_44_2248)">
<path d="M5.4375 12.75C7.40501 12.75 9 11.155 9 9.1875C9 7.21999 7.40501 5.625 5.4375 5.625C3.46999 5.625 1.875 7.21999 1.875 9.1875C1.875 11.155 3.46999 12.75 5.4375 12.75Z" stroke="#202224" stroke-width="1.375" stroke-miterlimit="10"/>
<path d="M0.375021 18.375C0.362103 17.6491 0.49232 16.9277 0.758232 16.2522C1.02415 15.5766 1.42054 14.96 1.92479 14.4377C2.42903 13.9153 3.03124 13.4974 3.69702 13.2078C4.3628 12.9183 5.07911 12.7627 5.80502 12.75M10.875 18.375C10.8879 17.6491 10.7577 16.9277 10.4918 16.2522C10.2259 15.5766 9.8295 14.96 9.32525 14.4377C8.82101 13.9153 8.2188 13.4974 7.55302 13.2078C6.88724 12.9183 6.17094 12.7627 5.44502 12.75" stroke="#202224" stroke-width="1.375" stroke-miterlimit="10"/>
<path d="M13.125 5.625H23.625" stroke="#202224" stroke-width="1.375" stroke-miterlimit="10"/>
<path d="M13.125 11.625H23.625" stroke="#202224" stroke-width="1.375" stroke-miterlimit="10"/>
<path d="M13.125 17.625H23.625" stroke="#202224" stroke-width="1.375" stroke-miterlimit="10"/>
</g>
<defs>
<clipPath id="clip0_44_2248">
<rect width="24" height="24" fill="white"/>
</clipPath>
</defs>
</svg>
