<svg width="14" height="13" viewBox="0 0 14 13" fill="none" xmlns="http://www.w3.org/2000/svg">
<path d="M6.77588 9.04076C6.65437 9.0397 6.53802 8.99148 6.45138 8.90627L1.86157 4.31646C1.77796 4.2299 1.7317 4.11396 1.73274 3.99362C1.73379 3.87327 1.78206 3.75816 1.86716 3.67306C1.95226 3.58796 2.06738 3.53969 2.18772 3.53864C2.30806 3.5376 2.424 3.58386 2.51057 3.66747L6.77588 7.93278L11.0412 3.66747C11.0835 3.62363 11.1342 3.58866 11.1902 3.56461C11.2462 3.54055 11.3064 3.52789 11.3673 3.52736C11.4283 3.52683 11.4887 3.53844 11.5451 3.56152C11.6015 3.5846 11.6528 3.61868 11.6959 3.66178C11.739 3.70487 11.7731 3.75612 11.7961 3.81252C11.8192 3.86893 11.8308 3.92937 11.8303 3.99031C11.8298 4.05126 11.8171 4.11148 11.793 4.16748C11.769 4.22348 11.734 4.27412 11.6902 4.31646L7.10038 8.90627C7.01374 8.99148 6.89739 9.0397 6.77588 9.04076Z" fill="#565656"/>
</svg>
