<svg width="25" height="24" viewBox="0 0 25 24" fill="none" xmlns="http://www.w3.org/2000/svg">
<path d="M13.6916 3H9.52002C7.6344 3 6.69159 3 6.10581 3.58579C5.52002 4.17157 5.52002 5.11438 5.52002 7V17C5.52002 18.8856 5.52002 19.8284 6.10581 20.4142C6.69159 21 7.6344 21 9.52002 21H15.52C17.4056 21 18.3484 21 18.9342 20.4142C19.52 19.8284 19.52 18.8856 19.52 17V8.82843C19.52 8.41968 19.52 8.2153 19.4439 8.03153C19.3678 7.84776 19.2233 7.70324 18.9342 7.41421L15.1058 3.58579C14.8168 3.29676 14.6723 3.15224 14.4885 3.07612C14.3047 3 14.1003 3 13.6916 3Z" stroke="black" stroke-opacity="0.3" stroke-width="2"/>
<path d="M13.52 3V7C13.52 7.94281 13.52 8.41421 13.8129 8.70711C14.1058 9 14.5772 9 15.52 9H19.52" stroke="black" stroke-opacity="0.3" stroke-width="2"/>
</svg>
