<svg width="24" height="23" viewBox="0 0 24 23" fill="none" xmlns="http://www.w3.org/2000/svg">
<g clip-path="url(#clip0_4_1332)">
<path d="M23.4878 11.7152C23.4878 10.7729 23.4096 10.0852 23.2403 9.37216H12.2291V13.6252H18.6924C18.5621 14.6822 17.8585 16.2739 16.2947 17.3435L16.2728 17.4859L19.7543 20.1215L19.9955 20.145C22.2108 18.1458 23.4878 15.2042 23.4878 11.7152Z" fill="#4285F4"/>
<path d="M12.2291 22.921C15.3956 22.921 18.0539 21.9022 19.9955 20.145L16.2947 17.3435C15.3044 18.0184 13.9752 18.4895 12.2291 18.4895C9.12773 18.4895 6.49549 16.4904 5.55717 13.7271L5.41963 13.7386L1.79948 16.4763L1.75214 16.605C3.6807 20.3487 7.64213 22.921 12.2291 22.921Z" fill="#34A853"/>
<path d="M5.55716 13.7271C5.30958 13.0141 5.1663 12.25 5.1663 11.4605C5.1663 10.671 5.30958 9.90695 5.54414 9.19387L5.53758 9.042L1.87206 6.26022L1.75214 6.31597C0.95728 7.86952 0.50119 9.6141 0.50119 11.4605C0.50119 13.3069 0.95728 15.0514 1.75214 16.605L5.55716 13.7271Z" fill="#FBBC05"/>
<path d="M12.2291 4.43136C14.4313 4.43136 15.9168 5.36093 16.7638 6.13775L20.0737 2.97973C18.0409 1.13332 15.3956 0 12.2291 0C7.64214 0 3.6807 2.57222 1.75214 6.31596L5.54414 9.19385C6.49549 6.4306 9.12773 4.43136 12.2291 4.43136Z" fill="#EB4335"/>
</g>
<defs>
<clipPath id="clip0_4_1332">
<rect width="23" height="23" fill="white" transform="translate(0.5)"/>
</clipPath>
</defs>
</svg>
