<svg width="27" height="27" viewBox="0 0 27 27" fill="none" xmlns="http://www.w3.org/2000/svg">
<path d="M13.1601 2L12.4529 1.29289L13.1601 0.585786L13.8672 1.29289L13.1601 2ZM14.1601 17.4286C14.1601 17.9809 13.7123 18.4286 13.1601 18.4286C12.6078 18.4286 12.1601 17.9809 12.1601 17.4286L14.1601 17.4286ZM3.88152 9.86432L12.4529 1.29289L13.8672 2.70711L5.29573 11.2785L3.88152 9.86432ZM13.8672 1.29289L22.4386 9.86432L21.0244 11.2785L12.4529 2.70711L13.8672 1.29289ZM14.1601 2L14.1601 17.4286L12.1601 17.4286L12.1601 2L14.1601 2Z" fill="black" fill-opacity="0.3"/>
<path d="M1.15991 20.8572L1.15991 22.5715C1.15991 24.465 2.69494 26 4.58848 26L21.7313 26C23.6249 26 25.1599 24.465 25.1599 22.5715V20.8572" stroke="black" stroke-opacity="0.3" stroke-width="2"/>
</svg>
