<svg width="20" height="20" viewBox="0 0 20 20" fill="none" xmlns="http://www.w3.org/2000/svg">
<path d="M3.28406 5.51722C4.19094 5.51722 4.9261 4.74529 4.9261 3.79308C4.9261 2.84086 4.19094 2.06894 3.28406 2.06894C2.37719 2.06894 1.64203 2.84086 1.64203 3.79308C1.64203 4.74529 2.37719 5.51722 3.28406 5.51722Z" fill="#202224"/>
<path d="M8.20966 4.13791H17.4051" stroke="#202224" stroke-width="1.5873" stroke-miterlimit="10" stroke-linecap="round" stroke-linejoin="round"/>
<path d="M3.28406 11.7241C4.19094 11.7241 4.9261 10.9522 4.9261 9.99999C4.9261 9.04777 4.19094 8.27585 3.28406 8.27585C2.37719 8.27585 1.64203 9.04777 1.64203 9.99999C1.64203 10.9522 2.37719 11.7241 3.28406 11.7241Z" fill="#202224"/>
<path d="M8.20966 10.3448H17.4051" stroke="#202224" stroke-width="1.5873" stroke-miterlimit="10" stroke-linecap="round" stroke-linejoin="round"/>
<path d="M3.28406 17.931C4.19094 17.931 4.9261 17.1591 4.9261 16.2069C4.9261 15.2547 4.19094 14.4828 3.28406 14.4828C2.37719 14.4828 1.64203 15.2547 1.64203 16.2069C1.64203 17.1591 2.37719 17.931 3.28406 17.931Z" fill="#202224"/>
<path d="M8.20966 16.5517H17.4051" stroke="#202224" stroke-width="1.5873" stroke-miterlimit="10" stroke-linecap="round" stroke-linejoin="round"/>
</svg>
